<svg id="Capa_1" data-name="Capa 1" xmlns="http://www.w3.org/2000/svg" viewBox="0 0 512 512"><defs><style>.cls-1{fill:#010002;}</style></defs><title>calendar</title><path class="cls-1" d="M394.88,108.8h-45.3V87.89a10.45,10.45,0,0,0-20.91,0V108.8H265.95V87.89a10.45,10.45,0,0,0-20.91,0V108.8H182.32V87.89a10.45,10.45,0,0,0-20.91,0V108.8h-45.3a27.87,27.87,0,0,0-27.88,27.88V384.09A27.87,27.87,0,0,0,116.11,412H394.88a27.87,27.87,0,0,0,27.88-27.88V136.67a27.87,27.87,0,0,0-27.88-27.88h0Zm7,275.29a7,7,0,0,1-7,7H116.11a7,7,0,0,1-7-7V136.67a7,7,0,0,1,7-7h45.3v20.91a10.45,10.45,0,0,0,20.91,0V129.7H245v20.91a10.45,10.45,0,0,0,20.91,0V129.7h62.72v20.91a10.45,10.45,0,0,0,20.91,0V129.7h45.3a7,7,0,0,1,7,7V384.09Zm0,0"/><rect class="cls-1" x="161.41" y="202.88" width="41.82" height="31.36"/><rect class="cls-1" x="161.41" y="255.15" width="41.82" height="31.36"/><rect class="cls-1" x="161.41" y="307.42" width="41.82" height="31.36"/><rect class="cls-1" x="234.59" y="307.42" width="41.82" height="31.36"/><rect class="cls-1" x="234.59" y="255.15" width="41.82" height="31.36"/><rect class="cls-1" x="234.59" y="202.88" width="41.82" height="31.36"/><rect class="cls-1" x="307.77" y="307.42" width="41.82" height="31.36"/><rect class="cls-1" x="307.77" y="255.15" width="41.82" height="31.36"/><rect class="cls-1" x="307.77" y="202.88" width="41.82" height="31.36"/></svg>