<svg id="Capa_1" data-name="Capa 1" xmlns="http://www.w3.org/2000/svg" viewBox="0 0 512 512"><title>feedback</title><path d="M394.67,149.33H160A10.67,10.67,0,1,1,160,128H394.67A10.67,10.67,0,0,1,394.67,149.33Z"/><path d="M266.67,256h128a10.67,10.67,0,0,1,0,21.33h-128A10.67,10.67,0,0,1,266.67,256Z"/><path d="M0,104.83A41.1,41.1,0,0,0,12,133.7h0l30.71,30.7V341.33A42.72,42.72,0,0,0,85.33,384H390.25L493.79,487.54a10.66,10.66,0,0,0,7.54,3.13,10.54,10.54,0,0,0,4.08-.81A10.67,10.67,0,0,0,512,480V64a42.72,42.72,0,0,0-42.67-42.67h-384A42.72,42.72,0,0,0,42.67,64v0.18c-0.62,0-1.21-.18-1.83-0.18A40.87,40.87,0,0,0,0,104.83Zm64,80.91,77.81,77.8a10.6,10.6,0,0,0,5.46,2.92l53.31,10.67a10.87,10.87,0,0,0,2.08.21,10.67,10.67,0,0,0,10.46-12.76l-10.24-51.24H394.67a10.67,10.67,0,0,0,0-21.33H185.77L69.71,76A40.16,40.16,0,0,0,64,71.29V64A21.35,21.35,0,0,1,85.33,42.67h384A21.35,21.35,0,0,1,490.67,64V454.25l-88.46-88.46a10.66,10.66,0,0,0-7.54-3.13H85.33A21.35,21.35,0,0,1,64,341.33V185.74Zm-6.25-36.41,27.59-27.59,96.83,96.83,6.9,34.5-34.46-6.9Zm-36.42-44.5A19.51,19.51,0,0,1,54.63,91l15.63,15.63L42.67,134.25,27,118.63A19.68,19.68,0,0,1,21.33,104.83Z"/></svg>