<svg id="Capa_1" data-name="Capa 1" xmlns="http://www.w3.org/2000/svg" viewBox="0 0 501.06 243.45"><title>sneakers-02</title><path d="M500.63,146.53c-2.55-15.2-17-25.82-35.17-25.82-58.63,0-151.31-24.46-204.93-65.39C245,43.45,233.42,32.93,224.13,24.47,208.52,10.27,198.22.89,185.29,0.89c-7,0-14,2.84-22,8.93C152.08,18.4,148.09,30.9,144.23,43c-5.87,18.38-11,34.43-40.8,39-3.62-11.6-11.77-31.46-26.21-36.62A49.82,49.82,0,0,0,60.53,42C44,42,35,53.84,27.76,66.58c-6,10.45-12.89,32.87-17,48.89-3.47,13.45-5.25,22.9-6,29.64A12,12,0,0,0,4,147.72H4v0.54c-0.07.5-.13,1-0.19,1.53-0.15,1.33-.38,3.26-0.64,5.62C2.7,159.71,2,166.34,1.41,173.55c-1.58,19-1.77,32.27-.57,39.58,2.45,15,23.82,28.94,162.4,28.94,8.61,0,14.41-2.44,19.52-4.6a48,48,0,0,1,14.05-4.13c5.5-.67,14.27,1.66,22.76,3.92,8.68,2.31,17.66,4.7,25.91,4.81q6.87,0.09,13.48.09c139.47,0,199-29.37,224.45-54.45,12.09-11.93,16.56-23.29,16.77-29.66a28.35,28.35,0,0,0,.52-11.51h-0.07Zm-55.3,46.86c-29.18,15.1-87.52,32.8-199.7,31.33-6.09-.08-14-2.19-21.67-4.23-10.08-2.69-20.51-5.46-29.34-4.37A64.73,64.73,0,0,0,176,221.48c-4.45,1.88-7.67,3.24-12.78,3.24-126.71,0-143.39-12.6-145.37-14.88-1.21-8.45,0-27,1.44-42,25.31,3.54,149.11,20.39,262.59,27.22l2.83,0.33a8.31,8.31,0,0,0,1,0,8.57,8.57,0,0,0,1.17-.09c27.92,1.61,55.11,2.59,79.94,2.59,33.51,0,59.86-1.7,79.72-5.18l-1.12.6h0v0ZM462.63,171c-18.47,6.38-50.74,9.61-95.9,9.61-25.79,0-54.14-1.8-83.27-2.81C203.67,175,38.17,153,21.46,150.68c0.64-9.47,15.13-65,21.37-75.52C50.55,62.09,55,59.38,60.53,59.38a33.18,33.18,0,0,1,10.88,2.34C78.69,64.32,86,82.19,88.64,93.45a8.66,8.66,0,0,0,9.16,6.67c47.68-4,56.16-30.51,63-51.83,3.33-10.42,6.2-19.41,13.09-24.69,4.71-3.6,8.44-5.35,11.43-5.35,6.22,0,14.55,7.59,27.18,19.07,7.19,6.55,15.73,14.32,26.42,23l-8.6,13a8.67,8.67,0,0,0,14.2,10l0.24-.37,7.85-11.83q6.21,4.58,13.2,9l-6.23,9.39A8.67,8.67,0,0,0,274,99l6.74-10.16q6.89,3.79,14.28,7.39l-6.19,9.33a8.67,8.67,0,0,0,14.45,9.59l7.7-11.61a430.5,430.5,0,0,0,43.18,15.82c39.09,12,78.62,18.66,111.3,18.66,11.17,0,17.13,5.7,18.08,11.35,1,6.29-3.79,15.72-20.91,21.63h0Z"/><rect width="500.88" height="243.45" style="fill:none"/><path d="M149.35,173a8.5,8.5,0,0,1-7.15-13.09l31-48.26a8.5,8.5,0,0,1,14.31,9.18h0l-31,48.26A8.49,8.49,0,0,1,149.35,173Z"/><path d="M185.68,179a8.5,8.5,0,0,1-7.15-13.09l31-48.26a8.5,8.5,0,1,1,14.31,9.18h0l-31,48.26A8.49,8.49,0,0,1,185.68,179Z"/><path d="M224.68,184.35a8.5,8.5,0,0,1-7.15-13.09l31-48.26a8.5,8.5,0,1,1,14.31,9.18l-31,48.26A8.5,8.5,0,0,1,224.68,184.35Z"/></svg>