<svg id="Capa_1" data-name="Capa 1" xmlns="http://www.w3.org/2000/svg" viewBox="0 0 512 512"><defs><style>.cls-1{fill:#010002}</style></defs><path class="cls-1" d="M394.88 108.8h-45.3V87.89a10.45 10.45 0 0 0-20.91 0v20.91h-62.72V87.89a10.45 10.45 0 0 0-20.91 0v20.91h-62.72V87.89a10.45 10.45 0 0 0-20.91 0v20.91h-45.3a27.87 27.87 0 0 0-27.88 27.88v247.41A27.87 27.87 0 0 0 116.11 412h278.77a27.87 27.87 0 0 0 27.88-27.88V136.67a27.87 27.87 0 0 0-27.88-27.88zm7 275.29a7 7 0 0 1-7 7H116.11a7 7 0 0 1-7-7V136.67a7 7 0 0 1 7-7h45.3v20.91a10.45 10.45 0 0 0 20.91 0V129.7H245v20.91a10.45 10.45 0 0 0 20.91 0V129.7h62.72v20.91a10.45 10.45 0 0 0 20.91 0V129.7h45.3a7 7 0 0 1 7 7v247.39zm0 0"/><path class="cls-1" d="M161.41 202.88h41.82v31.36h-41.82zm0 52.27h41.82v31.36h-41.82zm0 52.27h41.82v31.36h-41.82zm73.18 0h41.82v31.36h-41.82zm0-52.27h41.82v31.36h-41.82zm0-52.27h41.82v31.36h-41.82zm73.18 104.54h41.82v31.36h-41.82zm0-52.27h41.82v31.36h-41.82zm0-52.27h41.82v31.36h-41.82z"/></svg>