<svg data-name="Capa 1" xmlns="http://www.w3.org/2000/svg" viewBox="0 0 512 512"><path d="M394.67 149.33H160a10.67 10.67 0 1 1 0-21.33h234.67a10.67 10.67 0 0 1 0 21.33zM266.67 256h128a10.67 10.67 0 0 1 0 21.33h-128a10.67 10.67 0 0 1 0-21.33z"/><path d="M0 104.83a41.1 41.1 0 0 0 12 28.87l30.71 30.7v176.93A42.72 42.72 0 0 0 85.33 384h304.92l103.54 103.54a10.66 10.66 0 0 0 7.54 3.13 10.54 10.54 0 0 0 4.08-.81A10.67 10.67 0 0 0 512 480V64a42.72 42.72 0 0 0-42.67-42.67h-384A42.72 42.72 0 0 0 42.67 64v.18c-.62 0-1.21-.18-1.83-.18A40.87 40.87 0 0 0 0 104.83zm64 80.91l77.81 77.8a10.6 10.6 0 0 0 5.46 2.92l53.31 10.67a10.87 10.87 0 0 0 2.08.21 10.67 10.67 0 0 0 10.46-12.76l-10.24-51.24h191.79a10.67 10.67 0 0 0 0-21.33h-208.9L69.71 76A40.16 40.16 0 0 0 64 71.29V64a21.35 21.35 0 0 1 21.33-21.33h384A21.35 21.35 0 0 1 490.67 64v390.25l-88.46-88.46a10.66 10.66 0 0 0-7.54-3.13H85.33A21.35 21.35 0 0 1 64 341.33V185.74zm-6.25-36.41l27.59-27.59 96.83 96.83 6.9 34.5-34.46-6.9zm-36.42-44.5A19.51 19.51 0 0 1 54.63 91l15.63 15.63-27.59 27.62L27 118.63a19.68 19.68 0 0 1-5.67-13.8z"/></svg>